<svg xmlns="http://www.w3.org/2000/svg" xmlns:xlink="http://www.w3.org/1999/xlink" version="1.1" id="Laag_1" x="0px" y="0px" viewBox="0 0 800 449.8" style="enable-background:new 0 0 800 449.8;" xml:space="preserve" width="800"  height="449.8" ><SCRIPT xmlns="" id="allow-copy_script"/>
<style type="text/css">
	.st0{fill:#FFFFFF;}
</style>
<g>
	<g>
		<g>
			<path class="st0" d="M362.3,213.6l-14.8,4.5c3.6,7.6,5.4,15.9,5.4,25.1c0,9.2-2.3,17.2-6.8,24c-4.5,6.8-10.6,10.2-18.3,10.2     c-7.7,0-13.5-2.5-17.5-7.5c-4-5-6-11.6-6-19.7c0-13.6,5-24.8,15-33.5c10-8.7,22.6-13.1,37.8-13.1l-0.9-9.4     c-1.3-0.2-3.6-0.3-6.8-0.3c-17.4,0-33.1,7.1-47.1,21.4c-9.3,9.5-15.5,19.8-18.7,31c-3.4-0.1-6.7-0.1-9.9-0.1     c-2.5,0-5,0.1-7.5,0.2h-3.4c-4.2-10-10.8-17.6-19.9-22.6c-9.1-5-23.5-9-43.2-12.1c12.1-5.7,26.8-14.9,44-27.8     c9.5-7,17.4-14.9,23.7-23.6c6.3-8.7,9.5-16.4,9.5-23.1c0-6.7-1.7-11.8-5.1-15.3c-3.4-3.5-7.9-5.3-13.5-5.3     c-5.6,0-14.3,3-26.1,8.9c-11.8,6-24.7,14.1-35.3,22.1c1.1-4.9,4.4-18.1,5.1-21.9l-12.5-2.5c-1.9,5.7-11.7,37.8-13.2,42     c-20.8,19.9-36.6,36.5-48.3,55.3c-11.7,18.8-16.4,31.8-16.4,43.9c0,12.1,4.9,18.2,14.8,18.2c9.3,0,19.1-7.5,29.4-22.4     c10.3-14.9,16.6-29.7,25.1-56.8l12.2-38.6c8.5-7.6,17.2-13.8,26-18.6c8.8-4.8,15.8-7.2,20.9-7.2c6.6,0,9.9,3.3,9.9,9.9     c0,4-2.1,8.6-6.2,13.9c-4.2,5.3-9.3,10.4-15.5,15.3c-6.2,4.9-11.7,9.1-16.7,12.6c-5,3.5-10.3,6.9-15.9,10.2     c-5.6,3.3-9.6,6.2-11.9,8.5c-2.4,2.4-3.5,5-3.5,7.8c0,4.7,3.8,8.1,11.4,10.2c13.8,3.8,23.6,7.2,29.4,10.2     c5.8,3,10.1,6.9,12.9,11.6c-18.2,2.7-36.5,7.7-54.9,15.2c-18.5,7.5-34.2,16.8-47.1,27.8c-13,11.1-19.4,22.1-19.4,33.1     c0,7.2,2.8,13,8.5,17.5c5.7,4.4,14,6.7,25,6.7c2.8,0,5.7-0.2,8.8-0.6v0v0c9.2-1.2,20-4.2,32.2-8.9c10.9-4.2,20.8-9.2,29.7-14.8     c13.1-7.9,25.7-18.1,34.9-31.2c1-1.4,1.9-2.8,2.8-4.1c1-1.6,2-3.4,2.9-5.2c4.1-8,7-16.9,8.1-26.9c0,0,0,0,0,0l7.6-0.3     c1.4,0,2.8,0,4.2,0c1.5,0,3.1,0,4.7,0c-0.2,2-0.3,3.9-0.3,5.9c0,11.2,3.1,19.9,9.2,26.3c6.1,6.3,14.7,9.5,25.7,9.5     c14.4,0,26.9-6,37.5-18c10.6-12,15.9-25.7,15.9-41C369.7,230.8,367.2,221.8,362.3,213.6z M145.3,252.2c-3.8,6.4-9.3,10.6-12,10.6     c-2.7,0-4.1-2-4.1-6c0-6.4,4.1-18.3,12.4-32.7c8.3-14.4,20-27.5,31.2-38.1C168.3,208,158.6,230.8,145.3,252.2z M231.1,292.8     c-5.5,7.8-12.9,14.8-22.1,21c-17,11.7-33.2,17.6-48.5,17.6c-6.2,0-11.2-1.4-14.8-4.1c-3.6-2.7-5.4-6.4-5.4-10.9     c0-10.4,9.2-21.3,27.5-32.8c18.4-11.5,41.7-18.9,70.1-22.3c0.9,3.2,1.4,6.4,1.4,9.7C239.3,277.8,236.6,285.1,231.1,292.8z"/>
			<path class="st0" d="M675.1,154.7c-3.8,0-7,1.5-9.4,4.4c-2.4,3-3.7,6.6-3.7,10.9c0,7.8,4.9,11.7,14.6,11.7c3.5,0,6.3-1.6,8.3-4.7     c2.1-3.1,3.1-6.5,3.1-10.2c0-3.6-1.2-6.6-3.6-8.9C682.1,155.8,678.9,154.7,675.1,154.7z"/>
			<path class="st0" d="M630.3,126.9c-6.6,13.2-12,23.8-16,31.8c-4.1,8-8.2,16.3-12.5,24.7c-1.1,2.2-2.4,4.6-3.7,7.3     c-3.5,6.9-7.7,15.1-12.6,24.7c-0.2,0.5-0.5,0.9-0.7,1.4c-7.1,13.8-13.4,24.3-18.9,31.5c-15,19.9-27.1,29.8-36.3,29.8     c-0.4,0-0.8,0-1.3,0c-4-0.3-7.2-1.8-9.8-4.6c-2.8-3.1-4.3-7.3-4.3-12.6c0-12.5,7.1-24.7,21.2-36.8c0.1-0.1,0.3-0.2,0.4-0.3     c9.5-8,19.4-13.8,29.9-17.3c5-1.7,10.1-2.9,15.3-3.5l-0.6-7.1l-0.2-2.9c-12,0-24.9,3.9-38.7,11.7c-0.5,0.3-1.1,0.6-1.6,0.9     c-7.1,4.2-13.7,9-19.8,14.3c-6.1,5.4-11.6,11.5-16.6,18.2c-6.5,8.8-12.1,18.9-13.3,25.6c0,0-6.5,6.1-7.7,7.1     c-1.1,1-2.4,2-3.8,3.1c-1.4,1.1-2.7,2-3.8,2.6c-1.1,0.6-2.6,0.9-4.3,0.9s-3.5-0.9-5.4-2.7c-1.9-1.8-2.8-4.3-2.8-7.5     c0-3.2,3-11.2,8.9-24c6-12.8,9.5-20.9,10.6-24.4c1.1-3.5,1.7-7.4,1.7-11.8c0-4.3-1.6-8.1-4.7-11.4c-3.1-3.2-7.1-4.8-11.8-4.8     c-1.9,0-3.9,0.2-5.9,0.5l0,0c-35.5,5.6-61.2,55.9-66.2,66.4c0,0,0,0.1-0.1,0.1c8.1-32.9,14.9-56.1,20.2-69.6l-13.2-4.2     c-4.7,10.2-10.9,24.4-17.1,45.5c-6.4,22.1-11.9,42.3-15.5,64.3l17,6c12.1-27.6,23.1-48.8,32.9-63.4c9.8-14.7,19.6-22,29.2-22     c3,0,5.6,1.1,7.8,3.3c2.2,2.2,3.3,4.6,3.3,7.2c0,6.1-3.3,15.5-9.8,28.2c-6.5,12.8-9.8,21.7-9.8,26.8c0,5.1,1.7,9.4,5.1,12.8     c3.4,3.4,8,5.1,13.9,5.1c5.9,0,12.4-2.8,19.7-8.5c3.7-2.9,7-6.1,9.9-9.7c0.5,6.3,2.6,11.4,6.4,15.4c4.3,4.5,10.2,6.8,17.6,6.8     c21.4,0,43.2-19.5,65.6-58.5c-4.2,15.7-6.4,27.4-6.4,34.9c0,0.1,0,1.3,0.1,1.7c0.1,2.4,0.3,4,0.8,5.8c0.8,2.6,2.2,5,4.3,7     c2.5,2.5,5.7,4.1,9.6,4.8c1.4,0.2,2.8,0.4,4.4,0.4c5.9,0,12.4-2.8,19.7-8.5c3.8-2.9,10.8-11,17.4-19.2c-0.1,1.9-0.2,3.8-0.2,5.6     c0,14.8,5.3,22.1,15.9,22.1c6.1,0,12.8-3.1,20.3-9.2c7.5-6.1,13.5-13.6,18-22.3l-5.7-4.8c-9.1,10.2-16.2,15.3-21.3,15.3     c-2.7,0-4.9-0.9-6.8-2.8c-1.9-1.9-2.8-5.1-2.8-9.5c0-4.4,2.9-14.5,8.7-30.2c5.8-15.7,10.6-27.2,14.6-34.4l-12.2-7.4     c-0.6,1.1-17.3,37.8-23.3,52.4c0,0,0,0,0,0.1c-6.1,15.5-19.6,25.9-19.6,25.9c-4.4,4.4-8.1,6.3-11.4,6.3c-0.7,0-1.3,0-1.9-0.1     c-2.3-0.3-4.1-1.1-5.3-2.6c-1.5-1.8-2.3-4.2-2.3-7.2c0-11.9,4.8-29.8,14.5-53.7c1.9-4.8,3.9-9.7,6-14.6     c12.8-30.5,27.8-61.8,44.9-93.9L644,99.9C639.5,108.8,634.9,117.8,630.3,126.9z"/>
		</g>
	</g>
</g>
</svg>